#N canvas 152 76 1144 812 10;
#X text 28 18 alexandria_scene_transition_manager.pd;
#X text 28 38 MODIFIED: All transitions now use smooth parameter morphing.;
#X text 28 58 No more master fade/switch/fade — seamless crossfade for all moves.;
#X obj 32 98 inlet;
#X obj 32 128 change;
#X obj 32 158 t f b;
#X obj 32 188 v \$0-next-scene;
#X obj 103 188 s \$0-evaluate;
#X obj 252 98 r alex_router_scene_family;
#X obj 252 128 v \$0-pending-family;
#X obj 32 228 r \$0-evaluate;
#X obj 32 258 t b b;
#X obj 32 288 v \$0-last-family;
#X obj 182 288 v \$0-pending-family;
#X obj 32 318 pack f f;
#X obj 32 348 t b b;
#X obj 32 758 outlet;
#X obj 392 98 r \$0-do-morph;
#X obj 392 128 v barMs;
#X obj 392 158 expr max($f1 * 0.75 \, 1500);
#X obj 392 188 t f b b;
#X obj 392 218 pack f f f;
#X obj 392 248 t l l;
#X obj 392 278 s alex_scene_morph_start;
#X obj 592 278 unpack f f f;
#X obj 592 308 + 10;
#X obj 592 338 delay 0;
#X obj 592 368 t b b b;
#X obj 592 398 v \$0-next-scene;
#X msg 592 428 scene \$1;
#X obj 722 398 v \$0-pending-family;
#X obj 722 428 v \$0-last-family;
#X obj 852 398 v \$0-next-scene;
#X obj 852 428 v \$0-last-scene;
#X obj 492 188 v \$0-last-scene;
#X obj 622 188 v \$0-next-scene;
#X obj 32 378 s \$0-do-morph;
#X obj 182 378 s \$0-do-morph;
#X connect 3 0 4 0;
#X connect 4 0 5 0;
#X connect 5 0 6 0;
#X connect 5 1 7 0;
#X connect 8 0 9 0;
#X connect 10 0 11 0;
#X connect 11 0 12 0;
#X connect 11 1 13 0;
#X connect 12 0 14 0;
#X connect 13 0 14 1;
#X connect 14 0 15 0;
#X connect 15 0 36 0;
#X connect 15 1 37 0;
#X connect 17 0 18 0;
#X connect 18 0 19 0;
#X connect 19 0 20 0;
#X connect 20 0 21 0;
#X connect 20 1 34 0;
#X connect 20 2 35 0;
#X connect 21 0 22 0;
#X connect 22 0 23 0;
#X connect 22 1 24 0;
#X connect 24 0 25 0;
#X connect 25 0 26 0;
#X connect 26 0 27 0;
#X connect 27 0 28 0;
#X connect 27 1 30 0;
#X connect 27 2 32 0;
#X connect 28 0 29 0;
#X connect 29 0 16 0;
#X connect 30 0 31 0;
#X connect 32 0 33 0;
#X connect 34 0 21 1;
#X connect 35 0 21 2;