#N canvas 144 108 957 549 10;
#X text 23 17 alexandria_zone_scene_map.pd;
#X text 23 37 Maps [r zone] 1..35 into musical scene families plus walking progression.;
#X obj 31 83 alexandria_micro_zone_driver;
#X text 31 61 Spatial layer;
#X obj 31 131 r zone_id;
#X floatatom 31 161 5 0 0 0 zone_id - - 0;
#X obj 31 191 expr $f1 - 1;
#X obj 31 221 text get \$0-zone-families;
#X obj 31 251 unpack f f;
#X floatatom 31 281 5 0 0 0 scene_family - - 0;
#X floatatom 146 281 8 0 0 0 family_progress - - 0;
#X obj 31 311 s alex_scene_family;
#X obj 146 311 s alex_family_progress;
#X text 31 338 Global walking progress;
#X obj 31 365 r zone_mid_progress;
#X floatatom 31 395 8 0 0 0 loop_progress - - 0;
#X obj 31 425 s alex_loop_progress;
#X obj 219 131 r zone_id;
#X obj 219 161 s alex_zone_id;
#X obj 219 191 r zone_length_m;
#X floatatom 219 221 8 0 0 0 zone_length_m - - 0;
#X obj 219 251 s alex_zone_length_m;
#X text 219 108 Useful aliases with alex_ prefix;
#X obj 538 60 text define -k \$0-zone-families;
#A set 0 0.00 \; 0 0.25 \; 0 0.50 \; 0 0.75 \; 0 1.00 \; 1 0.00 \; 1 0.25 \; 1 0.50 \; 1 0.75 \; 1 1.00 \; 2 0.00 \; 2 0.33 \; 2 0.67 \; 2 1.00 \; 3 0.00 \; 3 0.25 \; 3 0.50 \; 3 0.75 \; 3 1.00 \; 4 0.00 \; 4 0.25 \; 4 0.50 \; 4 0.75 \; 4 1.00 \; 5 0.00 \; 5 0.50 \; 5 1.00 \; 6 0.00 \; 6 0.33 \; 6 0.67 \; 6 1.00 \; 7 0.00 \; 7 0.33 \; 7 0.67 \; 7 1.00 \;;
#X text 538 20 35 zones regrouped by the real loop geometry and the intended track pacing.;
#X text 538 40 1-2 \, 3-5 \, 6-7 \, 8-9 \, 10-11 \, 12-13 \, 14-27 \, 28-35;
#X text 538 103 Zones 14-27 carry the sea-edge world into the opposite return side \; zones 28-35 start scene 31 onward.;
#X connect 4 0 5 0;
#X connect 5 0 6 0;
#X connect 6 0 7 0;
#X connect 7 0 8 0;
#X connect 8 0 9 0;
#X connect 8 0 11 0;
#X connect 8 1 10 0;
#X connect 8 1 12 0;
#X connect 14 0 15 0;
#X connect 15 0 16 0;
#X connect 17 0 18 0;
#X connect 19 0 20 0;
#X connect 20 0 21 0;
